# This file uses centimeters as units for non-parametric coordinates.

mtllib planebrick.mtl
g default
v -3.691084 0.000000 -0.000000
v 3.691084 0.000000 -0.000000
v -3.691084 6.325017 0.000000
v 3.691084 6.325017 0.000000
v 1.230361 6.325017 0.000000
v 1.230361 0.000000 -0.000000
v -1.230362 6.325017 0.000000
v -1.230362 0.000000 -0.000000
v -3.691084 4.216678 0.000000
v -1.230362 4.216678 0.000000
v 1.230361 4.216678 0.000000
v 3.691084 4.216678 0.000000
v -3.691084 2.108339 0.000000
v -1.230362 2.108339 0.000000
v 1.230361 2.108339 0.000000
v 3.691084 2.108339 0.000000
vt 0.000000 0.000000
vt 1.000000 0.000000
vt 0.000000 1.000000
vt 1.000000 1.000000
vt 0.666667 1.000000
vt 0.666667 0.000000
vt 0.333333 1.000000
vt 0.333333 0.000000
vt 0.000000 0.666667
vt 0.333333 0.666667
vt 0.666667 0.666667
vt 1.000000 0.666667
vt 0.000000 0.333333
vt 0.333333 0.333333
vt 0.666667 0.333333
vt 1.000000 0.333333
vn 0.000000 -0.000000 1.000000
vn 0.000000 -0.000000 1.000000
vn 0.000000 -0.000000 1.000000
vn 0.000000 -0.000000 1.000000
vn 0.000000 -0.000000 1.000000
vn 0.000000 -0.000000 1.000000
vn 0.000000 -0.000000 1.000000
vn 0.000000 -0.000000 1.000000
vn 0.000000 -0.000000 1.000000
vn 0.000000 -0.000000 1.000000
vn 0.000000 -0.000000 1.000000
vn 0.000000 -0.000000 1.000000
vn 0.000000 -0.000000 1.000000
vn 0.000000 -0.000000 1.000000
vn 0.000000 -0.000000 1.000000
vn 0.000000 -0.000000 1.000000
s 1
g pPlane1
usemtl initialShadingGroup
f 11/11/1 12/12/2 4/4/3 5/5/4
f 10/10/5 11/11/1 5/5/4 7/7/6
f 9/9/7 10/10/5 7/7/6 3/3/8
f 13/13/9 14/14/10 10/10/5 9/9/7
f 14/14/10 15/15/11 11/11/1 10/10/5
f 15/15/11 16/16/12 12/12/2 11/11/1
f 1/1/13 8/8/14 14/14/10 13/13/9
f 8/8/14 6/6/15 15/15/11 14/14/10
f 6/6/15 2/2/16 16/16/12 15/15/11
