# This file uses centimeters as units for non-parametric coordinates.

g default
v -12.370000 0.263000 0.000000
v 12.369802 0.263000 0.000000
v -12.370000 8.010851 0.000000
v 12.369802 8.010851 0.000000
v -12.370000 25.779860 0.000000
v 12.369802 25.779860 0.000000
v -10.999716 0.263000 0.000000
v -10.999716 8.010851 0.000000
v -10.999716 25.779860 0.000000
v 10.875614 0.263000 0.000000
v 10.875614 8.010851 0.000000
v 10.875614 25.779860 0.000000
v -1.835146 0.263000 0.000000
v -1.835146 8.010851 0.000000
v -1.835146 25.779860 0.000000
v 1.208946 0.263000 0.000000
v 1.208946 8.010851 0.000000
v 1.208946 25.779860 0.000000
v 12.369802 1.231592 0.000000
v 10.875614 1.231592 0.000000
v 1.208946 1.231592 0.000000
v -1.835146 1.231592 0.000000
v -10.999716 1.231592 0.000000
v -12.370000 1.231592 0.000000
v 10.875614 1.231592 -0.406961
v 1.208946 1.231592 -0.406961
v 10.875614 8.010851 -0.406961
v 1.208946 8.010851 -0.406961
v -1.835146 1.231592 -0.406961
v -10.999716 1.231592 -0.406961
v -1.835146 8.010851 -0.406961
v -10.999716 8.010851 -0.406961
v 12.369802 9.001737 0.000000
v 10.875614 9.001737 0.000000
v 1.208946 9.001737 0.000000
v -1.835146 9.001737 0.000000
v -10.999716 9.001737 0.000000
v -12.370000 9.001737 0.000000
v -12.370000 0.263000 0.247189
v -10.999716 0.263000 0.247189
v -10.999716 1.231592 0.247189
v -12.370000 1.231592 0.247189
v -1.835146 0.263000 0.247189
v -1.835146 1.231592 0.247189
v 10.875614 0.263000 0.247189
v 12.369802 0.263000 0.247189
v 12.369802 1.231592 0.247189
v 10.875614 1.231592 0.247189
v 1.208946 1.231592 0.247189
v 1.208946 0.263000 0.247189
v -12.370000 8.010851 0.196741
v -10.999716 8.010851 0.196741
v -1.835146 8.010851 0.196741
v 10.875614 8.010851 0.196741
v 12.369802 8.010851 0.196741
v 1.208946 8.010851 0.196741
v 12.369802 8.505461 0.196741
v 10.875614 8.505461 0.196741
v 1.208946 8.505461 0.196741
v -1.835146 8.505461 0.196741
v -10.999716 8.505461 0.196741
v -12.370000 8.505461 0.196741
v 10.875614 8.505461 0.427749
v 10.875614 9.001737 0.427749
v 12.369802 8.505461 0.427749
v 12.369802 9.001737 0.427749
v 1.208946 8.505461 0.427749
v 1.208946 9.001737 0.427749
v -1.835146 9.001737 0.427749
v -1.835146 8.505461 0.427749
v -10.999716 8.505461 0.427749
v -10.999716 9.001737 0.427749
v -12.370000 8.505461 0.427749
v -12.370000 9.001737 0.427749
vt 0.596802 0.686511
vt 0.639934 0.685739
vt 0.640483 0.716229
vt 0.597350 0.716985
vt 0.892889 0.602988
vt 0.849745 0.603016
vt 0.849746 0.587441
vt 0.892882 0.587413
vt 0.652705 0.672624
vt 0.941194 0.668292
vt 0.941659 0.698762
vt 0.653171 0.703140
vt 0.561224 0.602802
vt 0.561232 0.587235
vt 0.452150 0.703964
vt 0.499183 0.704842
vt 0.498616 0.735343
vt 0.451583 0.734451
vt 0.161079 0.587448
vt 0.161077 0.603029
vt 0.114029 0.602972
vt 0.114042 0.587397
vt 0.121804 0.727708
vt 0.025987 0.725705
vt 0.026623 0.695216
vt 0.122439 0.697232
vt 0.465401 0.587186
vt 0.465402 0.602745
vt 0.135474 0.684582
vt 0.439743 0.690974
vt 0.439109 0.721444
vt 0.134839 0.715087
vt 0.451445 0.742230
vt 0.498466 0.743143
vt 0.494228 0.956540
vt 0.447183 0.955619
vt 0.134430 0.735721
vt 0.438684 0.741992
vt 0.434328 0.955377
vt 0.130040 0.949110
vt 0.117210 0.948861
vt 0.021388 0.946862
vt 0.025831 0.733482
vt 0.121641 0.735476
vt 0.653499 0.723787
vt 0.942003 0.719325
vt 0.945323 0.932729
vt 0.656853 0.937185
vt 0.597485 0.724743
vt 0.640632 0.724013
vt 0.644096 0.937412
vt 0.600975 0.938130
vt 0.134681 0.722885
vt 0.438952 0.729207
vt 0.434058 0.968200
vt 0.129787 0.961907
vt 0.653299 0.710951
vt 0.941786 0.706525
vt 0.954821 0.719125
vt 0.958127 0.932526
vt 0.945538 0.945569
vt 0.657050 0.949961
vt 0.160966 0.022798
vt 0.161099 0.551017
vt 0.114067 0.551023
vt 0.113907 0.022816
vt 0.465346 0.022729
vt 0.465410 0.550921
vt 0.561237 0.022738
vt 0.561230 0.550935
vt 0.849800 0.022786
vt 0.849736 0.551010
vt 0.892869 0.551019
vt 0.892958 0.022805
vt 0.596660 0.678733
vt 0.639793 0.677959
vt 0.652587 0.664835
vt 0.941076 0.660517
vt 0.452293 0.696184
vt 0.499326 0.697056
vt 0.026787 0.687432
vt 0.122602 0.689458
vt 0.135636 0.676794
vt 0.439905 0.683202
vt 0.644210 0.943606
vt 0.601075 0.944326
vt 0.945634 0.951777
vt 0.657147 0.956137
vt 0.494102 0.962729
vt 0.447069 0.961812
vt 0.117079 0.955060
vt 0.021262 0.953053
vt 0.433931 0.974396
vt 0.129660 0.968096
vt 0.161090 0.564505
vt 0.161084 0.580153
vt 0.114046 0.580119
vt 0.114055 0.564491
vt 0.465407 0.564354
vt 0.465404 0.579943
vt 0.561232 0.564375
vt 0.561230 0.579976
vt 0.849741 0.564508
vt 0.849744 0.580156
vt 0.892881 0.580133
vt 0.892876 0.564498
vn 0.000000 0.000000 1.000000
vn 0.000000 0.000000 1.000000
vn 0.000000 0.000000 1.000000
vn 0.000000 0.000000 1.000000
vn 0.000000 0.000000 1.000000
vn 0.000000 0.000000 1.000000
vn 0.000000 0.000000 1.000000
vn 0.000000 0.000000 1.000000
vn 0.000000 0.000000 1.000000
vn 0.000000 0.000000 1.000000
vn 0.000000 0.000000 1.000000
vn 0.000000 0.000000 1.000000
vn 0.000000 0.000000 1.000000
vn 0.000000 0.000000 1.000000
vn 0.000000 0.000000 1.000000
vn 0.000000 0.000000 1.000000
vn 0.000000 0.000000 1.000000
vn 0.000000 0.000000 1.000000
vn 0.000000 0.000000 1.000000
vn 0.000000 0.000000 1.000000
vn 0.000000 0.000000 1.000000
vn 0.000000 0.000000 1.000000
vn 0.000000 0.000000 1.000000
vn 0.000000 0.000000 1.000000
vn 0.000000 0.000000 1.000000
vn 0.000000 0.000000 1.000000
vn 0.000000 0.000000 1.000000
vn 0.000000 0.000000 1.000000
vn 0.000000 0.000000 1.000000
vn 0.000000 0.000000 1.000000
vn 0.000000 0.000000 1.000000
vn 0.000000 0.000000 1.000000
vn 0.000000 0.000000 1.000000
vn 0.000000 0.000000 1.000000
vn 0.000000 0.000000 1.000000
vn 0.000000 0.000000 1.000000
vn 0.000000 0.000000 1.000000
vn 0.000000 0.000000 1.000000
vn 0.000000 0.000000 1.000000
vn 0.000000 0.000000 1.000000
vn 0.000000 0.000000 1.000000
vn 0.000000 0.000000 1.000000
vn 0.000000 0.000000 1.000000
vn 0.000000 0.000000 1.000000
vn 0.000000 0.000000 1.000000
vn 0.000000 0.000000 1.000000
vn 0.000000 0.000000 1.000000
vn 0.000000 0.000000 1.000000
vn 0.000000 0.000000 1.000000
vn 0.000000 0.000000 1.000000
vn 0.000000 0.000000 1.000000
vn 0.000000 0.000000 1.000000
vn 0.000000 0.000000 1.000000
vn 0.000000 0.000000 1.000000
vn 0.000000 0.000000 1.000000
vn 0.000000 0.000000 1.000000
vn 0.000000 0.000000 1.000000
vn 0.000000 0.000000 1.000000
vn 0.000000 0.000000 1.000000
vn 0.000000 0.000000 1.000000
vn 0.000000 1.000000 0.000000
vn 0.000000 1.000000 0.000000
vn 0.000000 1.000000 0.000000
vn 0.000000 1.000000 0.000000
vn -1.000000 0.000000 0.000000
vn -1.000000 0.000000 0.000000
vn -1.000000 0.000000 0.000000
vn -1.000000 0.000000 0.000000
vn 0.000000 -1.000000 0.000000
vn 0.000000 -1.000000 0.000000
vn 0.000000 -1.000000 0.000000
vn 0.000000 -1.000000 0.000000
vn 1.000000 0.000000 0.000000
vn 1.000000 0.000000 0.000000
vn 1.000000 0.000000 0.000000
vn 1.000000 0.000000 0.000000
vn 0.000000 1.000000 0.000000
vn 0.000000 1.000000 0.000000
vn 0.000000 1.000000 0.000000
vn 0.000000 1.000000 0.000000
vn -1.000000 0.000000 0.000000
vn -1.000000 0.000000 0.000000
vn -1.000000 0.000000 0.000000
vn -1.000000 0.000000 0.000000
vn 0.000000 -1.000000 0.000000
vn 0.000000 -1.000000 0.000000
vn 0.000000 -1.000000 0.000000
vn 0.000000 -1.000000 0.000000
vn 1.000000 0.000000 0.000000
vn 1.000000 0.000000 0.000000
vn 1.000000 0.000000 0.000000
vn 1.000000 0.000000 0.000000
vn 0.000000 0.000000 1.000000
vn 0.000000 0.000000 1.000000
vn 0.000000 0.000000 1.000000
vn 0.000000 0.000000 1.000000
vn 0.000000 0.000000 1.000000
vn 0.000000 0.000000 1.000000
vn 0.000000 0.000000 1.000000
vn 0.000000 0.000000 1.000000
vn 0.000000 0.000000 1.000000
vn 0.000000 0.000000 1.000000
vn 0.000000 0.000000 1.000000
vn 0.000000 0.000000 1.000000
vn 0.000000 0.000000 1.000000
vn 0.000000 0.000000 1.000000
vn 0.000000 0.000000 1.000000
vn 0.000000 0.000000 1.000000
vn 0.000000 0.000000 1.000000
vn 0.000000 0.000000 1.000000
vn 0.000000 0.000000 1.000000
vn 0.000000 0.000000 1.000000
vn 0.000000 -1.000000 0.000000
vn 0.000000 -1.000000 0.000000
vn 0.000000 -1.000000 0.000000
vn 0.000000 -1.000000 0.000000
vn 0.000000 1.000000 0.000000
vn 0.000000 1.000000 0.000000
vn 0.000000 1.000000 0.000000
vn 0.000000 1.000000 0.000000
vn 0.000000 -1.000000 0.000000
vn 0.000000 -1.000000 0.000000
vn 0.000000 -1.000000 0.000000
vn 0.000000 -1.000000 0.000000
vn 0.000000 1.000000 0.000000
vn 0.000000 1.000000 0.000000
vn 0.000000 1.000000 0.000000
vn 0.000000 1.000000 0.000000
vn 0.000000 -1.000000 0.000000
vn 0.000000 -1.000000 0.000000
vn 0.000000 -1.000000 0.000000
vn 0.000000 -1.000000 0.000000
vn 0.000000 1.000000 0.000000
vn 0.000000 1.000000 0.000000
vn 0.000000 1.000000 0.000000
vn 0.000000 1.000000 0.000000
vn 0.000000 1.000000 0.000000
vn 0.000000 1.000000 0.000000
vn 0.000000 1.000000 0.000000
vn 0.000000 1.000000 0.000000
vn 0.000000 -1.000000 0.000000
vn 0.000000 -1.000000 0.000000
vn 0.000000 -1.000000 0.000000
vn 0.000000 -1.000000 0.000000
vn 0.000000 -1.000000 0.000000
vn 0.000000 -1.000000 0.000000
vn 0.000000 -1.000000 0.000000
vn 0.000000 -1.000000 0.000000
vn 0.000000 1.000000 0.000000
vn 0.000000 1.000000 0.000000
vn 0.000000 1.000000 0.000000
vn 0.000000 1.000000 0.000000
vn 0.000000 -1.000000 0.000000
vn 0.000000 -1.000000 0.000000
vn 0.000000 -1.000000 0.000000
vn 0.000000 -1.000000 0.000000
vn 0.000000 -1.000000 0.000000
vn 0.000000 -1.000000 0.000000
vn 0.000000 -1.000000 0.000000
vn 0.000000 -1.000000 0.000000
vn 0.000000 -1.000000 0.000000
vn 0.000000 -1.000000 0.000000
vn 0.000000 -1.000000 0.000000
vn 0.000000 -1.000000 0.000000
vn 0.000000 -1.000000 0.000000
vn 0.000000 -1.000000 0.000000
vn 0.000000 -1.000000 0.000000
vn 0.000000 -1.000000 0.000000
vn 0.000000 -1.000000 0.000000
vn 0.000000 -1.000000 0.000000
vn 0.000000 -1.000000 0.000000
vn 0.000000 -1.000000 0.000000
vn 0.000000 0.000000 1.000000
vn 0.000000 0.000000 1.000000
vn 0.000000 0.000000 1.000000
vn 0.000000 0.000000 1.000000
vn 0.000000 0.000000 1.000000
vn 0.000000 0.000000 1.000000
vn 0.000000 0.000000 1.000000
vn 0.000000 0.000000 1.000000
vn 0.000000 0.000000 1.000000
vn 0.000000 0.000000 1.000000
vn 0.000000 0.000000 1.000000
vn 0.000000 0.000000 1.000000
vn 0.000000 0.000000 1.000000
vn 0.000000 0.000000 1.000000
vn 0.000000 0.000000 1.000000
vn 0.000000 0.000000 1.000000
vn 0.000000 0.000000 1.000000
vn 0.000000 0.000000 1.000000
vn 0.000000 0.000000 1.000000
vn 0.000000 0.000000 1.000000
vn 0.000000 -1.000000 0.000000
vn 0.000000 -1.000000 0.000000
vn 0.000000 -1.000000 0.000000
vn 0.000000 -1.000000 0.000000
vn 0.000000 1.000000 0.000000
vn 0.000000 1.000000 0.000000
vn 0.000000 1.000000 0.000000
vn 0.000000 1.000000 0.000000
vn 0.000000 -1.000000 0.000000
vn 0.000000 -1.000000 0.000000
vn 0.000000 -1.000000 0.000000
vn 0.000000 -1.000000 0.000000
vn 0.000000 1.000000 0.000000
vn 0.000000 1.000000 0.000000
vn 0.000000 1.000000 0.000000
vn 0.000000 1.000000 0.000000
vn 0.000000 1.000000 0.000000
vn 0.000000 1.000000 0.000000
vn 0.000000 1.000000 0.000000
vn 0.000000 1.000000 0.000000
vn 0.000000 -1.000000 0.000000
vn 0.000000 -1.000000 0.000000
vn 0.000000 -1.000000 0.000000
vn 0.000000 -1.000000 0.000000
vn 0.000000 -1.000000 0.000000
vn 0.000000 -1.000000 0.000000
vn 0.000000 -1.000000 0.000000
vn 0.000000 -1.000000 0.000000
vn 0.000000 1.000000 0.000000
vn 0.000000 1.000000 0.000000
vn 0.000000 1.000000 0.000000
vn 0.000000 1.000000 0.000000
vn 0.000000 -1.000000 0.000000
vn 0.000000 -1.000000 0.000000
vn 0.000000 -1.000000 0.000000
vn 0.000000 -1.000000 0.000000
vn 0.000000 1.000000 0.000000
vn 0.000000 1.000000 0.000000
vn 0.000000 1.000000 0.000000
vn 0.000000 1.000000 0.000000
s off
g WallLowPoly:pPlane1
f 39/1/1 40/2/2 41/3/3 42/4/4
f 51/5/5 52/6/6 61/7/7 62/8/8
f 40/9/9 43/10/10 44/11/11 41/12/12
f 61/7/13 52/6/14 53/13/15 60/14/16
f 45/15/17 46/16/18 47/17/19 48/18/20
f 58/19/21 54/20/22 55/21/23 57/22/24
f 49/23/25 44/24/26 43/25/27 50/26/28
f 59/27/29 60/14/30 53/13/31 56/28/32
f 50/29/33 45/30/34 48/31/35 49/32/36
f 59/27/37 56/28/38 54/20/39 58/19/40
f 20/33/41 19/34/42 4/35/43 11/36/44
f 26/37/45 25/38/46 27/39/47 28/40/48
f 17/41/49 14/42/50 22/43/51 21/44/52
f 30/45/53 29/46/54 31/47/55 32/48/56
f 24/49/57 23/50/58 8/51/59 3/52/60
f 21/53/61 20/54/62 25/38/63 26/37/64
f 20/33/65 11/36/66 27/39/67 25/38/68
f 11/55/69 17/56/70 28/40/71 27/39/72
f 17/41/73 21/44/74 26/37/75 28/40/76
f 23/57/77 22/58/78 29/46/79 30/45/80
f 22/59/81 14/60/82 31/47/83 29/46/84
f 14/61/85 8/62/86 32/48/87 31/47/88
f 8/51/89 23/50/90 30/45/91 32/48/92
f 12/63/93 34/64/94 33/65/95 6/66/96
f 18/67/97 35/68/98 34/64/99 12/63/100
f 18/67/101 15/69/102 36/70/103 35/68/104
f 9/71/105 37/72/106 36/70/107 15/69/108
f 38/73/109 37/72/110 9/71/111 5/74/112
f 1/75/113 7/76/114 40/2/115 39/1/116
f 23/50/117 24/49/118 42/4/119 41/3/120
f 7/77/121 13/78/122 43/10/123 40/9/124
f 22/58/125 23/57/126 41/12/127 44/11/128
f 10/79/129 2/80/130 46/16/131 45/15/132
f 19/34/133 20/33/134 48/18/135 47/17/136
f 21/44/137 22/43/138 44/24/139 49/23/140
f 13/81/141 16/82/142 50/26/143 43/25/144
f 16/83/145 10/84/146 45/30/147 50/29/148
f 20/54/149 21/53/150 49/32/151 48/31/152
f 3/52/153 8/51/154 52/85/155 51/86/156
f 8/62/157 14/61/158 53/87/159 52/88/160
f 11/36/161 4/35/162 55/89/163 54/90/164
f 14/42/165 17/41/166 56/91/167 53/92/168
f 17/56/169 11/55/170 54/93/171 56/94/172
f 64/95/173 63/96/174 65/97/175 66/98/176
f 68/99/177 67/100/178 63/96/179 64/95/180
f 68/99/181 69/101/182 70/102/183 67/100/184
f 72/103/185 71/104/186 70/102/187 69/101/188
f 73/105/189 71/104/190 72/103/191 74/106/192
f 58/19/193 57/22/194 65/97/195 63/96/196
f 34/64/197 64/95/198 66/98/199 33/65/200
f 59/27/201 58/19/202 63/96/203 67/100/204
f 35/68/205 68/99/206 64/95/207 34/64/208
f 36/70/209 69/101/210 68/99/211 35/68/212
f 60/14/213 59/27/214 67/100/215 70/102/216
f 61/7/217 60/14/218 70/102/219 71/104/220
f 37/72/221 72/103/222 69/101/223 36/70/224
f 62/8/225 61/7/226 71/104/227 73/105/228
f 38/73/229 74/106/230 72/103/231 37/72/232
