# This file uses centimeters as units for non-parametric coordinates.

g default
v -7.546000 0.288000 17.781000
v 7.546328 0.288000 17.781000
v -7.546000 0.288000 7.232161
v 7.546328 0.288000 7.232161
v 7.546328 0.409790 17.781000
v 7.546328 0.409790 7.232161
v -7.546000 0.409790 7.232161
v -7.546000 0.409790 17.781000
vt 0.045768 0.490343
vt 0.045487 0.019803
vt 0.718704 0.019388
vt 0.718989 0.489946
vt 0.719368 0.983028
vt 0.046149 0.983028
vt 0.046149 0.512479
vt 0.719368 0.512479
vt 0.040338 0.490349
vt 0.040052 0.019801
vt 0.045483 0.014387
vt 0.718701 0.013939
vt 0.724130 0.019389
vt 0.724428 0.489938
vt 0.718990 0.495380
vt 0.045771 0.495774
vn 0.000000 1.000000 0.000000
vn 0.000000 1.000000 0.000000
vn 0.000000 1.000000 0.000000
vn 0.000000 1.000000 0.000000
vn 0.000000 -1.000000 0.000000
vn 0.000000 -1.000000 0.000000
vn 0.000000 -1.000000 0.000000
vn 0.000000 -1.000000 0.000000
vn 1.000000 0.000000 0.000000
vn 1.000000 0.000000 0.000000
vn 1.000000 0.000000 0.000000
vn 1.000000 0.000000 0.000000
vn 0.000000 0.000000 -1.000000
vn 0.000000 0.000000 -1.000000
vn 0.000000 0.000000 -1.000000
vn 0.000000 0.000000 -1.000000
vn -1.000000 0.000000 0.000000
vn -1.000000 0.000000 0.000000
vn -1.000000 0.000000 0.000000
vn -1.000000 0.000000 0.000000
vn 0.000000 0.000000 1.000000
vn 0.000000 0.000000 1.000000
vn 0.000000 0.000000 1.000000
vn 0.000000 0.000000 1.000000
s off
g OnePaperLowPoly:Paper5
f 5/1/1 6/2/2 7/3/3 8/4/4
f 2/5/5 1/6/6 3/7/7 4/8/8
f 2/9/9 4/10/10 6/2/11 5/1/12
f 4/11/13 3/12/14 7/3/15 6/2/16
f 3/13/17 1/14/18 8/4/19 7/3/20
f 1/15/21 2/16/22 5/1/23 8/4/24
