# This file uses centimeters as units for non-parametric coordinates.

mtllib Fireplace3.mtl
g default
v -3.739370 6.325017 0.282294
v 3.739370 6.325017 0.282294
v -3.739370 7.325017 0.282294
v 3.739370 7.325017 0.282294
v -3.739370 7.325017 -0.282294
v 3.739370 7.325017 -0.282294
v -3.739370 6.325017 -0.282294
v 3.739370 6.325017 -0.282294
v 3.466139 6.325017 -0.282294
v 3.466139 6.325017 0.282294
v 3.466139 7.325017 0.282294
v 3.466139 7.325017 -0.282294
v -3.466140 6.325017 -0.282294
v -3.466140 6.325017 0.282294
v -3.466140 7.325017 0.282294
v -3.466140 7.325017 -0.282294
v -3.739370 0.000000 -0.282294
v -3.466140 0.000000 -0.282294
v -3.466140 0.000000 0.282294
v -3.739370 0.000000 0.282294
v 3.466139 0.000000 -0.282294
v 3.739370 0.000000 -0.282294
v 3.739370 0.000000 0.282294
v 3.466139 0.000000 0.282294
v -3.466140 6.531698 0.282294
v -3.739370 6.531698 0.282294
v -3.739370 6.531698 -0.282294
v -3.466140 6.531698 -0.282294
v 3.466140 6.531698 -0.282294
v 3.739370 6.531698 -0.282294
v 3.739370 6.531698 0.282294
v 3.466140 6.531698 0.282294
v -3.466140 6.531698 0.670037
v -3.466140 7.325017 0.670037
v 3.466140 6.531698 0.670037
v 3.466139 7.325017 0.670037
v 3.435339 7.325017 0.670037
v 3.435339 7.325017 0.282294
v 3.435339 7.325017 -0.282294
v 3.435339 6.531698 -0.282294
v 3.435339 6.325017 -0.282294
v 3.435339 6.325017 0.282294
v 3.435339 6.531698 0.282294
v 3.435339 6.531698 0.670037
v -3.435339 7.325017 0.670037
v -3.435339 7.325017 0.282294
v -3.435339 7.325017 -0.282294
v -3.435339 6.531698 -0.282294
v -3.435339 6.325017 -0.282294
v -3.435339 6.325017 0.282294
v -3.435339 6.531698 0.282294
v -3.435339 6.531698 0.670037
v -3.435339 6.579091 0.670037
v -3.466140 6.579091 0.670037
v -3.466140 6.579091 0.282294
v -3.739370 6.579091 0.282294
v -3.739370 6.579091 -0.282294
v -3.466140 6.579091 -0.282294
v -3.435339 6.579091 -0.282294
v 3.435339 6.579091 -0.282294
v 3.466140 6.579091 -0.282294
v 3.739370 6.579091 -0.282294
v 3.739370 6.579091 0.282294
v 3.466140 6.579091 0.282294
v 3.466140 6.579091 0.670037
v 3.435339 6.579091 0.670037
v -3.435339 7.294865 0.670037
v -3.466140 7.294865 0.670037
v -3.466140 7.294865 0.282294
v -3.739370 7.294865 0.282294
v -3.739370 7.294865 -0.282294
v -3.466140 7.294865 -0.282294
v -3.435339 7.294865 -0.282294
v 3.435339 7.294865 -0.282294
v 3.466139 7.294865 -0.282294
v 3.739370 7.294865 -0.282294
v 3.739370 7.294865 0.282294
v 3.466139 7.294865 0.282294
v 3.466139 7.294865 0.670037
v 3.435339 7.294865 0.670037
v -3.466140 0.035514 0.282294
v -3.466140 0.035514 -0.282294
v -3.739370 0.035514 -0.282294
v -3.739370 0.035514 0.282294
v 3.466139 0.035514 0.282294
v 3.739370 0.035514 0.282294
v 3.739370 0.035514 -0.282294
v 3.466139 0.035514 -0.282294
v -3.713330 7.294865 0.282294
v -3.713330 6.579091 0.282294
v -3.713330 6.531698 0.282294
v -3.713330 6.325017 0.282294
v -3.713330 0.035514 0.282294
v -3.713330 0.000000 0.282294
v -3.713330 0.000000 -0.282294
v -3.713330 0.035514 -0.282294
v -3.713330 6.325017 -0.282294
v -3.713330 6.531698 -0.282294
v -3.713330 6.579091 -0.282294
v -3.713330 7.294865 -0.282294
v -3.713330 7.325017 -0.282294
v -3.713330 7.325017 0.282294
v 3.713330 7.294865 0.282294
v 3.713330 6.579091 0.282294
v 3.713330 6.531698 0.282294
v 3.713330 6.325017 0.282294
v 3.713330 0.035514 0.282294
v 3.713330 0.000000 0.282294
v 3.713330 0.000000 -0.282294
v 3.713330 0.035514 -0.282294
v 3.713330 6.325017 -0.282294
v 3.713330 6.531698 -0.282294
v 3.713330 6.579091 -0.282294
v 3.713330 7.294865 -0.282294
v 3.713330 7.325017 -0.282294
v 3.713330 7.325017 0.282294
vt 0.303239 0.381784
vt 0.294633 0.394998
vt 0.307552 0.371437
vt 0.305885 0.375016
vt 0.968953 0.912303
vt 0.979248 0.921398
vt 0.943875 0.937514
vt 0.944415 0.924281
vt 0.916701 0.893219
vt 0.910995 0.906391
vt 0.269349 0.421824
vt 0.905430 0.887786
vt 0.551460 0.729014
vt 0.577391 0.686601
vt 0.653854 0.562410
vt 0.669372 0.539418
vt 0.947047 0.055800
vt 0.917660 0.018198
vt 0.931426 0.007440
vt 0.960813 0.045043
vt 0.906093 0.886242
vt 0.933529 0.861934
vt 0.307149 0.374569
vt 0.917634 0.891901
vt 0.555328 0.453047
vt 0.553662 0.454174
vt 0.525768 0.385073
vt 0.524146 0.418484
vt 0.962168 0.046777
vt 0.948403 0.057535
vt 0.246155 0.029766
vt 0.213052 0.045167
vt 0.211835 0.042679
vt 0.245282 0.027100
vt 0.304622 0.008258
vt 0.293444 0.003484
vt 0.266755 0.419434
vt 0.293405 0.395262
vt 0.078235 0.994058
vt 0.169863 0.446556
vt 0.204647 0.438650
vt 0.254525 0.425197
vt 0.577647 0.684016
vt 0.543387 0.742836
vt 0.653440 0.562007
vt 0.687998 0.509078
vt 0.545348 0.740100
vt 0.692220 0.502609
vt 0.553038 0.456935
vt 0.497390 0.343883
vt 0.528131 0.383221
vt 0.529487 0.384956
vt 0.120654 0.007113
vt 0.089211 0.020097
vt 0.484524 0.327419
vt 0.542351 0.401419
vt 0.970410 0.869764
vt 0.308013 0.373015
vt 0.308889 0.373161
vt 0.919978 0.893395
vt 0.918907 0.894707
vt 0.912167 0.908575
vt 0.251690 0.426441
vt 0.289647 0.001306
vt 0.934583 0.004973
vt 0.166555 0.060286
vt 0.965325 0.044310
vt 0.107900 0.971132
vt 0.104795 0.970437
vt 0.104035 0.968722
vt 0.108269 0.968923
vt 0.975034 0.063241
vt 0.978191 0.060774
vt 0.033286 0.386960
vt 0.030240 0.388165
vt 0.174735 0.962792
vt 0.174777 0.960632
vt 0.121242 0.356297
vt 0.000762 0.059547
vt 0.100799 0.380082
vt 0.100186 0.378187
vt 0.033532 0.045410
vt 0.032783 0.043610
vt 0.077539 0.024723
vt 0.078267 0.026529
vt 0.075659 0.027783
vt 0.074982 0.025960
vt 0.089987 0.021881
vt 0.121748 0.008680
vt 0.000000 0.373144
vt 0.029986 0.390113
vt 0.034070 0.388924
vt 0.173162 0.963818
vt 0.172197 0.961379
vt 0.980623 0.918229
vt 0.968994 0.910687
vt 0.967688 0.910102
vt 0.943487 0.921868
vt 0.943222 0.923357
vt 0.940996 0.937304
vt 0.206514 0.438145
vt 0.035215 0.044582
vt 0.260369 0.054627
vt 0.246798 0.027534
vt 0.244674 0.023012
vt 0.209613 0.040156
vt 0.211016 0.043762
vt 0.219117 0.070172
vt 0.098416 0.377468
vt 0.098096 0.380045
vt 0.968278 0.911325
vt 0.944513 0.922927
vt 0.549233 0.733148
vt 0.670166 0.538155
vt 0.569292 0.439200
vt 0.539987 0.403267
vt 0.115582 0.354235
vt 0.000000 0.057754
vt 0.196348 0.982907
vt 0.201523 0.979568
vt 0.012237 0.363177
vt 0.092940 1.000000
vt 0.307461 0.371561
vt 0.084133 0.996419
vt 0.206757 0.976081
vt 0.127096 0.358559
vt 0.132353 0.001156
vt 0.004928 0.369193
vt 0.034506 0.042767
vt 0.302187 0.029526
vt 0.305029 0.029436
vt 0.990655 0.111599
vt 0.258551 0.055726
vt 0.221463 0.069860
vt 0.961268 0.073998
vt 0.130637 0.000032
vt 0.206385 0.440090
vt 0.251695 0.428390
vt 0.255226 0.427108
vt 0.204414 0.440583
vt 0.169724 0.448462
vt 0.369271 0.000033
vt 0.167236 0.061978
vt 0.173408 0.077744
vt 0.963969 0.042576
vt 0.384051 0.058675
vt 0.337796 0.070333
vt 0.288378 0.000023
vt 0.323016 0.011692
vt 0.930071 0.005706
vt 0.933227 0.003239
vt 0.916305 0.016463
vt 0.318895 0.028564
vt 0.556854 0.455653
vt 0.571984 0.438891
vt 0.527125 0.386808
vt 0.522571 0.420142
vt 0.498745 0.345617
vt 0.520457 0.422404
vt 0.539961 0.403287
vt 0.903439 0.000000
vt 0.260674 0.435012
vt 0.902684 0.906751
vt 0.952280 0.869410
vt 0.950141 0.869498
vt 0.309803 0.369578
vt 0.946778 0.867885
vt 0.304040 0.380342
vn 0.000000 0.000000 1.000000
vn 0.000000 0.000000 1.000000
vn 0.000000 0.000000 1.000000
vn 0.000000 0.000000 1.000000
vn 0.000000 1.000000 0.000000
vn 0.000000 1.000000 0.000000
vn 0.000000 1.000000 0.000000
vn 0.000000 1.000000 0.000000
vn 0.000000 0.000000 -1.000000
vn 0.000000 0.000000 -1.000000
vn 0.000000 0.000000 -1.000000
vn 0.000000 0.000000 -1.000000
vn 0.000000 -1.000000 0.000000
vn 0.000000 -1.000000 0.000000
vn 0.000000 -1.000000 0.000000
vn 0.000000 -1.000000 0.000000
vn 1.000000 0.000000 0.000000
vn 1.000000 0.000000 0.000000
vn 1.000000 0.000000 0.000000
vn 1.000000 0.000000 0.000000
vn -1.000000 0.000000 0.000000
vn -1.000000 0.000000 0.000000
vn -1.000000 0.000000 0.000000
vn -1.000000 0.000000 0.000000
vn 0.000000 -1.000000 0.000000
vn 0.000000 -1.000000 0.000000
vn 0.000000 -1.000000 0.000000
vn 0.000000 -1.000000 0.000000
vn 0.000000 0.000000 1.000000
vn 0.000000 0.000000 1.000000
vn 0.000000 0.000000 1.000000
vn 0.000000 0.000000 1.000000
vn 0.000000 1.000000 0.000000
vn 0.000000 1.000000 0.000000
vn 0.000000 1.000000 0.000000
vn 0.000000 1.000000 0.000000
vn 0.000000 0.000000 -1.000000
vn 0.000000 0.000000 -1.000000
vn 0.000000 0.000000 -1.000000
vn 0.000000 0.000000 -1.000000
vn 0.000000 -1.000000 0.000000
vn 0.000000 -1.000000 0.000000
vn 0.000000 -1.000000 0.000000
vn 0.000000 -1.000000 0.000000
vn 0.000000 0.000000 1.000000
vn 0.000000 0.000000 1.000000
vn 0.000000 1.000000 0.000000
vn 0.000000 1.000000 0.000000
vn 0.000000 0.000000 -1.000000
vn 0.000000 0.000000 -1.000000
vn 0.000000 0.000000 -1.000000
vn 0.000000 0.000000 -1.000000
vn 1.000000 0.000000 0.000000
vn 1.000000 0.000000 0.000000
vn 1.000000 0.000000 0.000000
vn 1.000000 0.000000 0.000000
vn 0.000000 0.000000 1.000000
vn 0.000000 0.000000 1.000000
vn -1.000000 0.000000 0.000000
vn -1.000000 0.000000 0.000000
vn 0.000000 0.000000 -1.000000
vn 0.000000 0.000000 -1.000000
vn 1.000000 0.000000 0.000000
vn 1.000000 0.000000 0.000000
vn 0.000000 0.000000 1.000000
vn 0.000000 0.000000 1.000000
vn -1.000000 0.000000 0.000000
vn -1.000000 0.000000 0.000000
vn -1.000000 0.000000 0.000000
vn -1.000000 0.000000 0.000000
vn 0.000000 0.000000 1.000000
vn 0.000000 0.000000 1.000000
vn -1.000000 0.000000 0.000000
vn -1.000000 0.000000 0.000000
vn 0.000000 0.000000 -1.000000
vn 0.000000 0.000000 -1.000000
vn 0.000000 0.000000 -1.000000
vn 0.000000 0.000000 -1.000000
vn 0.000000 0.000000 -1.000000
vn 1.000000 0.000000 0.000000
vn 1.000000 0.000000 0.000000
vn 0.000000 0.000000 1.000000
vn 0.000000 0.000000 1.000000
vn 0.000000 0.000000 1.000000
vn 0.000000 0.000000 1.000000
vn 0.000000 0.000000 1.000000
vn 0.000000 0.000000 1.000000
vn -1.000000 0.000000 0.000000
vn -1.000000 0.000000 0.000000
vn -1.000000 0.000000 0.000000
vn -1.000000 0.000000 0.000000
vn 0.000000 -1.000000 0.000000
vn 0.000000 -1.000000 0.000000
vn 0.000000 -1.000000 0.000000
vn 0.000000 -1.000000 0.000000
vn 1.000000 0.000000 0.000000
vn 1.000000 0.000000 0.000000
vn 1.000000 0.000000 0.000000
vn 1.000000 0.000000 0.000000
vn 0.000000 1.000000 0.000000
vn 0.000000 1.000000 0.000000
vn 0.000000 1.000000 0.000000
vn 0.000000 1.000000 0.000000
vn 0.000000 1.000000 0.000000
vn 0.000000 1.000000 0.000000
vn 0.000000 1.000000 0.000000
vn 0.000000 1.000000 0.000000
vn 0.000000 0.000000 -1.000000
vn 0.000000 0.000000 -1.000000
vn 0.000000 0.000000 -1.000000
vn 0.000000 0.000000 -1.000000
vn 0.000000 0.000000 -1.000000
vn 0.000000 0.000000 -1.000000
vn 0.000000 -1.000000 0.000000
vn 0.000000 -1.000000 0.000000
vn 0.000000 -1.000000 0.000000
vn 0.000000 -1.000000 0.000000
vn 0.000000 0.000000 1.000000
vn 0.000000 0.000000 1.000000
vn 0.000000 0.000000 1.000000
vn 0.000000 0.000000 1.000000
vn 0.000000 -1.000000 0.000000
vn 0.000000 -1.000000 0.000000
vn 0.000000 -1.000000 0.000000
vn 0.000000 -1.000000 0.000000
vn 0.000000 0.000000 1.000000
vn 0.000000 0.000000 1.000000
vn 0.000000 0.000000 1.000000
vn 0.000000 0.000000 1.000000
vn 0.000000 0.000000 1.000000
vn 0.000000 0.000000 1.000000
vn -1.000000 0.000000 0.000000
vn -1.000000 0.000000 0.000000
vn 0.000000 0.000000 1.000000
vn 0.000000 0.000000 1.000000
vn -1.000000 0.000000 0.000000
vn -1.000000 0.000000 0.000000
vn 0.000000 0.000000 -1.000000
vn 0.000000 0.000000 -1.000000
vn 0.000000 0.000000 -1.000000
vn 0.000000 0.000000 -1.000000
vn 0.000000 0.000000 -1.000000
vn 0.000000 0.000000 -1.000000
vn 0.000000 0.000000 -1.000000
vn 1.000000 0.000000 0.000000
vn 1.000000 0.000000 0.000000
vn 0.000000 0.000000 1.000000
vn 0.000000 0.000000 1.000000
vn 1.000000 0.000000 0.000000
vn 1.000000 0.000000 0.000000
vn 0.000000 0.000000 1.000000
vn 0.000000 0.000000 1.000000
vn 0.000000 0.000000 1.000000
vn 0.000000 0.000000 1.000000
vn -1.000000 0.000000 0.000000
vn -1.000000 0.000000 0.000000
vn 0.000000 0.000000 1.000000
vn 0.000000 0.000000 1.000000
vn -1.000000 0.000000 0.000000
vn -1.000000 0.000000 0.000000
vn 0.000000 0.000000 -1.000000
vn 0.000000 0.000000 -1.000000
vn 0.000000 0.000000 -1.000000
vn 0.000000 0.000000 -1.000000
vn 0.000000 0.000000 -1.000000
vn 0.000000 0.000000 -1.000000
vn 0.000000 0.000000 -1.000000
vn 1.000000 0.000000 0.000000
vn 1.000000 0.000000 0.000000
vn 0.000000 0.000000 1.000000
vn 0.000000 0.000000 1.000000
vn 1.000000 0.000000 0.000000
vn 1.000000 0.000000 0.000000
vn 0.000000 0.000000 1.000000
vn 0.000000 0.000000 1.000000
vn 1.000000 0.000000 0.000000
vn 1.000000 0.000000 0.000000
vn 0.000000 0.000000 -1.000000
vn 0.000000 0.000000 -1.000000
vn -1.000000 0.000000 0.000000
vn -1.000000 0.000000 0.000000
vn 0.000000 0.000000 1.000000
vn 0.000000 0.000000 1.000000
vn 0.000000 0.000000 1.000000
vn 0.000000 0.000000 1.000000
vn 1.000000 0.000000 0.000000
vn 1.000000 0.000000 0.000000
vn 0.000000 0.000000 -1.000000
vn 0.000000 0.000000 -1.000000
vn -1.000000 0.000000 0.000000
vn -1.000000 0.000000 0.000000
vn 0.000000 0.000000 1.000000
vn 0.000000 0.000000 1.000000
vn 0.000000 0.000000 1.000000
vn 0.000000 0.000000 1.000000
vn 0.000000 0.000000 1.000000
vn 0.000000 0.000000 1.000000
vn 0.000000 -1.000000 0.000000
vn 0.000000 -1.000000 0.000000
vn 0.000000 0.000000 -1.000000
vn 0.000000 0.000000 -1.000000
vn 0.000000 0.000000 -1.000000
vn 0.000000 0.000000 -1.000000
vn 0.000000 0.000000 -1.000000
vn 0.000000 0.000000 -1.000000
vn 0.000000 0.000000 -1.000000
vn 0.000000 1.000000 0.000000
vn 0.000000 1.000000 0.000000
vn 0.000000 0.000000 1.000000
vn 0.000000 0.000000 1.000000
vn 0.000000 0.000000 1.000000
vn 0.000000 0.000000 1.000000
vn 0.000000 0.000000 1.000000
vn 0.000000 -1.000000 0.000000
vn 0.000000 -1.000000 0.000000
vn 0.000000 0.000000 -1.000000
vn 0.000000 0.000000 -1.000000
vn 0.000000 0.000000 1.000000
s 1
g pCube3
usemtl initialShadingGroup
f 92/1/1 14/2/2 25/3/3 91/4/4
s 2
f 102/5/5 15/6/6 16/7/7 101/8/8
s 3
f 98/9/9 28/10/10 13/163/11 97/12/12
s 4
f 95/13/13 18/14/14 19/15/15 94/16/16
s 5
f 2/17/17 8/18/18 30/19/19 31/20/20
s 6
f 7/21/21 1/22/22 26/167/23 27/24/24
s 7
f 109/25/25 22/26/26 23/157/27 108/28/28
s 1
f 105/29/29 106/30/30 2/17/31 31/20/32
s 2
f 115/31/33 116/32/34 4/33/35 6/34/36
s 3
f 111/152/37 112/150/38 30/19/39 8/18/40
s 11
f 13/11/41 49/37/42 50/38/43 14/2/44
s 1
f 51/123/45 25/3/3 14/2/2 50/38/46
s 2
f 16/140/7 15/141/6 46/40/47 47/41/48
s 3
f 13/11/11 28/139/10 48/42/49 49/37/50
f 97/162/12 13/11/11 82/43/51 96/44/52
s 12
f 13/11/53 14/2/54 81/45/55 82/43/56
s 1
f 14/2/2 92/1/1 93/46/57 81/45/58
s 6
f 1/22/22 7/21/21 83/47/59 84/48/60
s 3
f 111/152/37 8/18/40 87/158/61 110/50/62
s 5
f 8/18/18 2/17/17 86/51/63 87/158/64
s 1
f 2/17/31 106/30/30 107/52/65 86/51/66
s 13
f 10/135/67 9/132/68 88/155/69 85/56/70
s 1
f 91/4/4 25/3/3 55/166/71 90/58/72
s 6
f 27/24/24 26/167/23 56/165/73 57/60/74
s 3
f 99/61/75 58/62/76 28/10/10 98/9/9
f 48/42/49 28/139/10 58/138/76 59/63/77
f 30/19/39 112/150/38 113/151/78 62/65/79
s 5
f 31/20/20 30/19/19 62/65/80 63/145/81
s 1
f 104/67/82 105/29/29 31/20/32 63/145/83
s 14
f 54/68/84 33/69/85 52/70/86 53/71/87
s 15
f 55/122/88 25/124/89 33/69/90 54/68/91
s 16
f 25/124/92 51/39/93 52/70/94 33/69/95
s 17
f 32/128/96 64/121/97 65/74/98 35/75/99
s 2
f 46/125/47 15/120/6 34/76/100 45/77/101
f 11/78/102 38/126/103 37/80/104 36/81/105
f 39/82/106 38/79/103 11/118/102 12/83/107
s 3
f 29/84/108 40/85/109 60/86/110 61/87/111
f 41/88/112 40/85/109 29/84/108 9/54/113
s 11
f 42/89/114 41/88/115 9/54/116 10/53/117
s 1
f 32/136/118 43/127/119 42/89/120 10/53/121
s 16
f 44/91/122 43/90/123 32/128/124 35/75/125
s 14
f 66/92/126 44/91/127 35/75/128 65/74/129
s 2
f 38/126/103 46/125/47 45/77/101 37/80/104
f 47/41/48 46/40/47 38/79/103 39/82/106
s 3
f 40/85/109 48/42/49 59/63/77 60/86/110
f 49/37/50 48/42/49 40/85/109 41/88/112
s 11
f 50/38/43 49/37/42 41/88/115 42/89/114
s 1
f 43/127/119 51/123/45 50/38/46 42/89/120
s 16
f 52/70/94 51/39/93 43/90/123 44/91/122
s 14
f 66/92/126 53/71/87 52/70/86 44/91/127
f 68/93/130 54/68/84 53/71/87 67/94/131
s 15
f 69/119/132 55/122/88 54/68/91 68/93/133
s 1
f 90/164/72 55/57/71 69/95/134 89/96/135
s 6
f 57/60/74 56/165/73 70/97/136 71/98/137
s 3
f 100/99/138 72/100/139 58/62/76 99/61/75
f 59/63/77 58/138/76 72/137/139 73/101/140
f 60/86/110 59/63/77 73/101/140 74/102/141
f 61/87/111 60/86/110 74/102/141 75/129/142
f 62/148/79 113/64/78 114/104/143 76/105/144
s 5
f 63/149/81 62/142/80 76/146/145 77/147/146
s 1
f 103/107/147 104/143/82 63/66/83 77/106/148
s 17
f 65/74/98 64/121/97 78/117/149 79/109/150
s 14
f 80/110/151 66/92/126 65/74/129 79/109/152
f 80/110/151 67/94/131 53/71/87 66/92/126
f 34/76/153 68/93/130 67/94/131 45/77/154
s 15
f 15/120/155 69/119/132 68/93/133 34/76/156
s 1
f 102/5/157 89/96/135 69/95/134 15/6/158
s 6
f 71/98/137 70/97/136 3/111/159 5/112/160
s 3
f 101/8/161 16/7/162 72/100/139 100/99/138
f 73/101/140 72/137/139 16/140/162 47/41/163
f 74/102/141 73/101/140 47/41/163 39/82/164
f 75/129/142 74/102/141 39/82/164 12/83/165
f 76/105/144 114/104/143 115/31/166 6/34/167
s 5
f 77/106/146 76/105/145 6/34/168 4/33/169
s 1
f 116/32/170 103/107/147 77/106/148 4/33/171
s 17
f 79/109/150 78/117/149 11/78/172 36/81/173
s 14
f 37/80/174 80/110/151 79/109/152 36/81/175
f 45/77/154 67/94/131 80/110/151 37/80/174
s 12
f 82/43/56 81/45/55 19/15/176 18/14/177
s 3
f 96/44/52 82/43/51 18/14/178 95/13/179
s 6
f 84/48/60 83/47/59 17/113/180 20/114/181
s 1
f 81/45/58 93/46/57 94/16/182 19/15/183
f 86/51/66 107/52/65 108/156/184 23/27/185
s 5
f 87/49/64 86/159/63 23/157/186 22/26/187
s 3
f 110/154/62 87/49/61 22/26/188 109/25/189
s 13
f 85/56/70 88/155/69 21/115/190 24/160/191
s 1
f 56/165/192 90/164/72 89/96/135 70/97/193
f 26/23/194 91/4/4 90/58/72 56/59/192
f 1/168/195 92/1/1 91/4/4 26/23/194
f 93/46/57 92/1/1 1/168/195 84/48/196
f 94/16/182 93/46/57 84/48/196 20/114/197
s 4
f 17/113/198 95/13/13 94/16/16 20/114/199
s 3
f 83/47/200 96/44/52 95/13/179 17/113/201
f 7/21/202 97/12/12 96/44/52 83/47/200
f 27/24/203 98/9/9 97/12/12 7/21/202
f 57/60/204 99/61/75 98/9/9 27/24/203
f 71/98/205 100/99/138 99/61/75 57/60/204
f 5/112/206 101/8/161 100/99/138 71/98/205
s 2
f 3/111/207 102/5/5 101/8/8 5/112/208
s 1
f 70/97/193 89/96/135 102/5/157 3/111/209
f 78/108/210 64/144/211 104/143/82 103/107/147
f 64/73/211 32/72/118 105/29/29 104/67/82
f 32/72/118 10/135/121 106/30/30 105/29/29
f 107/52/65 106/30/30 10/135/121 85/56/212
f 108/156/184 107/52/65 85/56/212 24/116/213
s 7
f 21/115/214 109/25/25 108/28/28 24/160/215
s 3
f 88/155/216 110/154/62 109/25/189 21/115/217
f 9/161/113 111/152/37 110/50/62 88/55/216
f 9/153/113 29/131/108 112/36/38 111/35/37
f 113/64/78 112/36/38 29/131/108 61/130/111
f 114/104/143 113/64/78 61/130/111 75/103/142
f 115/31/166 114/104/143 75/103/142 12/133/165
s 2
f 12/133/107 11/134/102 116/32/34 115/31/33
s 1
f 11/134/218 78/108/210 103/107/147 116/32/170
